<svg id="visual" viewBox="0 0 1920 1080" width="1920" height="1080" xmlns="http://www.w3.org/2000/svg" xmlns:xlink="http://www.w3.org/1999/xlink" version="1.1"><rect x="0" y="0" width="1920" height="1080" fill="#001220"></rect><defs><linearGradient id="grad1_0" x1="43.8%" y1="100%" x2="100%" y2="0%"><stop offset="14.444444444444446%" stop-color="#163b69" stop-opacity="1"></stop><stop offset="85.55555555555554%" stop-color="#163b69" stop-opacity="1"></stop></linearGradient></defs><defs><linearGradient id="grad1_1" x1="43.8%" y1="100%" x2="100%" y2="0%"><stop offset="14.444444444444446%" stop-color="#163b69" stop-opacity="1"></stop><stop offset="85.55555555555554%" stop-color="#052743" stop-opacity="1"></stop></linearGradient></defs><defs><linearGradient id="grad1_2" x1="43.8%" y1="100%" x2="100%" y2="0%"><stop offset="14.444444444444446%" stop-color="#001220" stop-opacity="1"></stop><stop offset="85.55555555555554%" stop-color="#052743" stop-opacity="1"></stop></linearGradient></defs><defs><linearGradient id="grad2_0" x1="0%" y1="100%" x2="56.3%" y2="0%"><stop offset="14.444444444444446%" stop-color="#163b69" stop-opacity="1"></stop><stop offset="85.55555555555554%" stop-color="#163b69" stop-opacity="1"></stop></linearGradient></defs><defs><linearGradient id="grad2_1" x1="0%" y1="100%" x2="56.3%" y2="0%"><stop offset="14.444444444444446%" stop-color="#052743" stop-opacity="1"></stop><stop offset="85.55555555555554%" stop-color="#163b69" stop-opacity="1"></stop></linearGradient></defs><defs><linearGradient id="grad2_2" x1="0%" y1="100%" x2="56.3%" y2="0%"><stop offset="14.444444444444446%" stop-color="#052743" stop-opacity="1"></stop><stop offset="85.55555555555554%" stop-color="#001220" stop-opacity="1"></stop></linearGradient></defs><g transform="translate(1920, 1080)"><path d="M-756 0C-750.1 -100.7 -744.1 -201.4 -698.5 -289.3C-652.8 -377.2 -567.4 -452.3 -478 -478C-388.6 -503.8 -295 -480.2 -214.7 -518.3C-134.3 -556.4 -67.2 -656.2 0 -756L0 0Z" fill="#031d31"></path><path d="M-504 0C-500 -67.1 -496.1 -134.3 -465.6 -192.9C-435.2 -251.5 -378.3 -301.5 -318.7 -318.7C-259 -335.8 -196.7 -320.1 -143.1 -345.5C-89.6 -370.9 -44.8 -437.5 0 -504L0 0Z" fill="#0b3156"></path><path d="M-252 0C-250 -33.6 -248 -67.1 -232.8 -96.4C-217.6 -125.7 -189.1 -150.8 -159.3 -159.3C-129.5 -167.9 -98.3 -160.1 -71.6 -172.8C-44.8 -185.5 -22.4 -218.7 0 -252L0 0Z" fill="#163b69"></path></g><g transform="translate(0, 0)"><path d="M756 0C764.1 116.9 772.2 233.7 698.5 289.3C624.7 344.9 469.2 339.2 390.3 390.3C311.4 441.5 309.1 549.5 256.8 619.9C204.5 690.3 102.2 723.2 0 756L0 0Z" fill="#031d31"></path><path d="M504 0C509.4 77.9 514.8 155.8 465.6 192.9C416.5 229.9 312.8 226.1 260.2 260.2C207.6 294.3 206 366.3 171.2 413.3C136.3 460.2 68.2 482.1 0 504L0 0Z" fill="#0b3156"></path><path d="M252 0C254.7 39 257.4 77.9 232.8 96.4C208.2 115 156.4 113.1 130.1 130.1C103.8 147.2 103 183.2 85.6 206.6C68.2 230.1 34.1 241.1 0 252L0 0Z" fill="#163b69"></path></g></svg>